<?xml version="1.0"?>
<svg width="728" height="330" xmlns="http://www.w3.org/2000/svg">
 <!-- Created with Method Draw - http://github.com/duopixel/Method-Draw/ -->

 <g>
  <title>background</title>
  <rect fill="#fff" id="canvas_background" height="332" width="730" y="-1" x="-1"/>
  <g display="none" overflow="visible" y="0" x="0" height="100%" width="100%" id="canvasGrid">
   <rect fill="url(#gridpattern)" stroke-width="0" y="0" x="0" height="100%" width="100%"/>
  </g>
 </g>
 <g>
  <title>Layer 1</title>
  <g stroke="null" id="svg_28">
   <g stroke="null" transform="matrix(0.7760192932199619,0,0,0.7760192932199619,-9361.976962787996,-6389.897517529316) " id="svg_26">
    <title stroke="null" transform="translate(-1.8189894035458565e-12,-4.513918399810791) translate(1.7886282205581665,0) translate(0,-3.6155176162719727) translate(0,-3.6155176162719727) translate(72.31035614013672,90.387939453125) translate(0,-365.1673583984375) translate(0,-0.00005516842065844685) translate(0,-0.00005516842065844685) translate(0,-0.00005516842065844685) translate(0,1.5360543727874756) translate(-202.4687957763672,-9.094947017729282e-13) translate(0.00019308947958052158,-9.094947017729282e-13) translate(0.00019308947958052158,-9.094947017729282e-13) translate(-0.0007861499907448888,-9.094947017729282e-13) translate(0.00019308947958052158,-9.094947017729282e-13) translate(0.00019308947958052158,-9.094947017729282e-13) translate(0.40643957257270813,-9.094947017729282e-13) translate(12220.626953125,0) translate(0,8545.3115234375) ">background</title>
    <rect stroke="null" fill="none" id="svg_24" height="375" width="883" y="8259.32304" x="12091.663567"/>
   </g>
   <g stroke="null" transform="matrix(0.7760192932199619,0,0,0.7760192932199619,-9361.976962787996,-6389.897517529316) " id="svg_27">
    <title stroke="null" transform="translate(-1.8189894035458565e-12,-4.513918399810791) translate(1.7886282205581665,0) translate(0,-3.6155176162719727) translate(0,-3.6155176162719727) translate(72.31035614013672,90.387939453125) translate(0,-365.1673583984375) translate(0,-0.00005516842065844685) translate(0,-0.00005516842065844685) translate(0,-0.00005516842065844685) translate(0,1.5360543727874756) translate(-202.4687957763672,-9.094947017729282e-13) translate(0.00019308947958052158,-9.094947017729282e-13) translate(0.00019308947958052158,-9.094947017729282e-13) translate(-0.0007861499907448888,-9.094947017729282e-13) translate(0.00019308947958052158,-9.094947017729282e-13) translate(0.00019308947958052158,-9.094947017729282e-13) translate(0.40643957257270813,-9.094947017729282e-13) translate(12220.626953125,0) translate(0,8545.3115234375) ">Layer 1</title>
    <g stroke="null" id="svg_14">
     <path stroke="null" id="svg_23" d="m12513.461914,8369.352539c-2.720703,-0.935547 -3.955078,-2.908203 -4.027344,-6.516602l-10.569336,5.154297c-5.222656,2.289063 -7.550781,-2.724609 -11.470703,-0.798828c-3.37793,1.661133 -6.154297,6.875977 -3.143555,9.130859c0.803711,0.592773 1.743164,0.695313 2.353516,1.75l0.106445,0.231445c0.448242,1.123047 -0.041992,1.925781 -0.05957,2.916016c-0.089844,3.771484 5.731445,4.787109 9.134766,3.143555c3.919922,-1.900391 1.391602,-6.824219 6.439453,-9.536133l11.236328,-5.474609l0,0l0,0zm52.112305,-25.417969c5.223633,-2.289063 7.55957,2.724609 11.470703,0.797852c3.37793,-1.665039 6.154297,-6.878906 3.134766,-9.129883c-0.793945,-0.59375 -1.725586,-0.700195 -2.327148,-1.750977l-0.115234,-0.234375c-0.453125,-1.123047 0.03418,-1.926758 0.063477,-2.916992c0.089844,-3.771484 -5.743164,-4.787109 -9.138672,-3.147461c-3.919922,1.900391 -1.400391,6.824219 -6.439453,9.53125l-6.546875,3.19043c0.341797,1.238281 0.623047,2.579102 0.892578,4.03125c0.273438,1.533203 0.405273,2.771484 0.422852,3.80957l8.583008,-4.180664l0,0zm-27.117188,34.765625c0,-3.441406 -1.144531,-6.230469 -2.544922,-6.230469c-1.410156,0 -2.545898,3.109375 -2.545898,6.550781c0,0.325195 0.222656,0.734375 1.606445,0.734375c3.4375,0 3.484375,-0.862305 3.484375,-1.054688l0,0l0,0zm-15.561523,-2.924805c0,0.140625 0.041992,0.72168 1.819336,1.430664c0.90918,0.354492 0.849609,-0.251953 0.849609,-0.496094c0,-2.579102 -0.358398,-4.675781 -1.09375,-4.936523c-0.738281,-0.255859 -1.575195,1.421875 -1.575195,4.001953l0,0l0,0zm3.612305,2.924805c0,0.188477 0.051758,1.054688 3.476563,1.054688c1.383789,0 1.610352,-0.40918 1.610352,-0.734375c0,-3.441406 -1.136719,-6.550781 -2.545898,-6.550781c-1.400391,0 -2.541016,2.789063 -2.541016,6.230469l0,0l0,0zm15.5625,-2.924805c0,-2.580078 -0.841797,-4.262695 -1.584961,-4.001953c-0.734375,0.260742 -1.092773,2.353516 -1.092773,4.936523c0,0.244141 -0.051758,0.850586 0.84082,0.496094c1.793945,-0.708984 1.836914,-1.290039 1.836914,-1.430664l0,0zm-9.665039,-3.036133c0.717773,-1.529297 1.790039,-2.704102 3.451172,-2.704102c0.96875,0 1.733398,0.418945 2.318359,0.991211c0.926758,-1.759766 2.609375,-2.233398 3.920898,-1.238281c0.088867,-0.674805 -0.05957,-1.43457 -0.141602,-2.250977c8.614258,0.350586 12.688477,1.576172 10.450195,-10.625c0.051758,-2.668945 3.143555,-4.961914 1.836914,-12.183594c-2.459961,-13.597656 -7.324219,-16.133789 -21.835938,-16.133789c-14.480469,0 -19.34082,2.536133 -21.800781,16.133789c-1.310547,7.216797 1.768555,9.514648 1.836914,12.183594c-2.242188,12.196289 1.835938,10.975586 10.441406,10.625c-0.089844,0.816406 -0.235352,1.576172 -0.149414,2.250977c1.319336,-0.995117 3.001953,-0.521484 3.936523,1.238281c0.568359,-0.572266 1.333008,-0.991211 2.310547,-0.991211c1.648438,0 2.733398,1.174805 3.424805,2.704102l0,0zm22.984375,-9.71582c-0.124023,3.408203 -1.349609,5.46582 -4.228516,6.414063l11.052734,5.389648c5.030273,2.711914 2.519531,7.635742 6.439453,9.536133c3.395508,1.643555 9.224609,0.623047 9.139648,-3.143555c-0.030273,-0.990234 -0.517578,-1.792969 -0.064453,-2.916016l0.115234,-0.231445c0.602539,-1.054688 1.524414,-1.157227 2.327148,-1.75c3.019531,-2.254883 0.244141,-7.469727 -3.133789,-9.130859c-3.920898,-1.930664 -6.248047,3.087891 -11.470703,0.798828l-10.176758,-4.966797l0,0zm-56.533203,-19.088867l8.985352,4.376953c0,-1.067383 0.124023,-2.366211 0.417969,-4.000977c0.251953,-1.388672 0.53418,-2.669922 0.850586,-3.856445l-6.888672,-3.365234c-5.047852,-2.711914 -2.519531,-7.635742 -6.439453,-9.532227c-3.404297,-1.639648 -9.224609,-0.623047 -9.134766,3.147461c0.016602,0.986328 0.507813,1.789063 0.05957,2.916992l-0.115234,0.234375c-0.610352,1.050781 -1.541992,1.157227 -2.335938,1.750977c-3.019531,2.250977 -0.244141,7.464844 3.142578,9.130859c3.912109,1.921875 6.231445,-3.091797 11.458008,-0.802734l0,0l0,0zm92.772461,72.026367c-14.429688,-5.782227 -35.791016,-9.442383 -59.616211,-9.442383c-9.860352,0 -19.293945,0.62793 -27.975586,1.763672c13.083984,8.652344 31.31543,17.875977 56.59668,26.211914c1.913086,-0.708008 3.296875,-1.259766 9.993164,-3.569336c10.492188,-3.613281 18.31543,7.716797 21.036133,12.375977c1.801758,0.439453 3.629883,0.871094 5.496094,1.293945c-5.551758,-13.345703 -6.431641,-21.523438 -5.530273,-28.633789l0,0l0,0zm-95.09082,-6.538086c-9.242188,1.618164 -17.432617,3.847656 -24.137695,6.529297c1.03418,8.015625 -0.217773,17.380859 -7.874023,33.99707c-12.854492,27.951172 16.564453,39.929688 14.130859,39.318359c-5.064453,-1.250977 -9.792969,-3.176758 -13.810547,-5.469727c0,0 1.024414,14.045898 5.40625,30.251953c-2.634766,6.282227 -3.292969,13.328125 -3.292969,20.810547c0,2.501953 0.068359,5.030273 0.124023,7.545898l-9.198242,-9.980469l-0.098633,-15.924805c-3.428711,6.286133 -8.839844,9.916016 -14.737305,8.994141c-9.548828,-1.486328 -16.766602,-14.297852 -16.113281,-28.629883c0.640625,-14.323242 8.908203,-24.730469 18.449219,-23.25293c0.333008,0.064453 0.666016,0.115234 0.990234,0.205078c-0.777344,-4.103516 -2.510742,-8.908203 -7.558594,-14.109375c-2.600586,-2.677734 -4.594727,-5.09082 -6.072266,-7.268555c-53.390625,3.262695 -101.172852,8.447266 -101.172852,8.447266l-10.941406,-38.067383c83.475586,-18.879883 79.111328,-130.375 176.53418,-152.755859c2.711914,27.732422 17.274414,39.591797 34.865234,39.689453c17.589844,-0.09375 32.152344,-11.957031 34.873047,-39.689453c40.142578,9.223633 63.014648,33.591797 81.865234,60.367188c-7.208984,17.795898 -18.53418,32.148438 -32.263672,40.753906c16.416016,-5.774414 29.825195,-17.923828 37.272461,-33.467773c24.350586,36.22168 43.683594,74.708008 89.651367,85.102539l-10.941406,38.067383c0,0 -47.77832,-5.18457 -101.167969,-8.452148c-1.486328,2.178711 -3.467773,4.59082 -6.073242,7.268555c-5.051758,5.197266 -6.790039,10.001953 -7.5625,14.110352c0.324219,-0.089844 0.644531,-0.141602 0.977539,-0.205078c9.548828,-1.477539 17.808594,8.929688 18.457031,23.25293c0.640625,14.331055 -6.581055,27.142578 -16.121094,28.628906c-5.888672,0.922852 -11.303711,-2.719727 -14.724609,-8.993164l-0.09375,15.924805l-9.083008,9.860352c0.050781,-2.494141 0.102539,-4.961914 0.102539,-7.421875c0.007813,-7.550781 -0.649414,-14.65625 -3.352539,-20.977539c4.342773,-16.125 5.34668,-30.077148 5.34668,-30.077148c-4.005859,2.285156 -8.733398,4.21582 -13.790039,5.466797c-2.433594,0.606445 26.767578,-11.295898 14.263672,-39.015625c-2.186523,-0.491211 -4.385742,-0.999023 -6.631836,-1.533203c0.311523,2.677734 0.277344,6.248047 -0.316406,9.010742c-3.061523,14.088867 -16.607422,19.853516 -30.568359,13.806641c-7.464844,-3.237305 -17.299805,-7.166016 -22.245117,-30.883789c-0.499023,-2.387695 -1.357422,-6.239258 -1.425781,-9.015625c-15.172852,-6.119141 -29.654297,-13.464844 -41.94043,-22.21875l0,0l0,0zm94.125977,33.629883c-1.435547,-1.297852 -3.604492,-2.870117 -6.345703,-3.753906c-4.428711,-1.443359 -7.28125,-1.460938 -10.4375,-0.717773c5.3125,1.538086 10.902344,3.02832 16.783203,4.47168l0,0l0,0zm-158.991211,54.555664c-0.46582,10.394531 4.761719,19.6875 11.68457,20.758789c6.921875,1.080078 12.90918,-6.482422 13.387695,-16.868164c0.243164,-5.508789 -1.110352,-10.723633 -3.484375,-14.558594c-3.929688,-0.806641 -5.206055,-2.728516 -5.803711,-5.461914c-0.777344,-0.358398 -1.576172,-0.601563 -2.400391,-0.725586c-6.917969,-1.076172 -12.917969,6.460938 -13.383789,16.855469l0,0l0,0zm200.688477,0c-0.453125,-10.394531 -6.457031,-17.931641 -13.388672,-16.855469c-0.81543,0.124023 -1.618164,0.367188 -2.386719,0.716797c-0.602539,2.750977 -1.883789,4.664063 -5.8125,5.470703c-2.361328,3.834961 -3.736328,9.049805 -3.484375,14.558594c0.46582,10.398438 6.469727,17.949219 13.392578,16.868164c6.913086,-1.071289 12.15332,-10.368164 11.679688,-20.758789l0,0l0,0zm-116.798828,-142.989258c0.077148,-3.9375 2.652344,-5.821289 6.248047,-6.333008c4.347656,-0.624023 7.956055,0.341797 8.216797,4.150391c0.298828,4.385742 -3.912109,9.541016 -8.306641,9.541016c-4.394531,0 -6.264648,-2.963867 -6.158203,-7.358398l0,0l0,0zm33.515625,0c0.097656,4.394531 -1.768555,7.358398 -6.150391,7.358398c-4.402344,0 -8.613281,-5.155273 -8.305664,-9.541016c0.255859,-3.808594 3.860352,-4.774414 8.220703,-4.150391c3.586914,0.511719 6.149414,2.391602 6.235352,6.333008l0,0zm-24.461914,81.916992c0,0 -4.052734,8.258789 -14.673828,7.507813c2.101563,1.293945 3.053711,2.753906 3.501953,3.253906l-30.166992,-0.584961c0,0 1.6875,-2.96875 11.727539,-4.621094c1.818359,-0.264648 3.462891,-0.379883 4.936523,-0.397461c-9.267578,-2.890625 -12.042969,-5.042969 -20.216797,-2.399414c-5.260742,1.69043 -8.374023,5.897461 -8.374023,5.897461s8.950195,-18.786133 22.043945,-14.272461c11.726563,4.040039 7.166016,2.711914 17.722656,6.209961c8.058594,2.651367 13.499023,-0.59375 13.499023,-0.59375l0,0zm-28.475586,120.949219c2.703125,1.686523 5.620117,2.963867 8.792969,3.770508c22.47168,5.679688 24.329102,-9.732422 19.293945,-20.370117c-4.027344,-8.456055 -13.353516,-12.174805 -13.353516,-12.174805s5.611328,1.643555 10.868164,1.643555l10.283203,0l10.279297,0c5.248047,0 10.876953,-1.643555 10.876953,-1.643555s-9.34375,3.710938 -13.362305,12.174805c-5.043945,10.628906 -3.168945,26.049805 19.302734,20.370117c3.203125,-0.806641 6.15332,-2.118164 8.882813,-3.826172c1.165039,4.078125 2.625977,8.024414 4.394531,11.636719l-16.732422,18.171875l-23.641602,25.486328l0,-0.264648l-23.636719,-25.217773l-16.664063,-18.073242c1.776367,-3.637695 3.237305,-7.59668 4.416016,-11.683594l0,0zm52.500977,-61.845703c7.939453,-1.250977 18.46582,-0.777344 30.679688,6.316406c17.34668,11.060547 14.447266,28.706055 14.447266,45.613281c0,16.992188 1.742188,32.280273 15.980469,42.712891c-12.794922,-3.083008 -25.581055,-7.216797 -32.711914,-19.40918c-6.598633,-11.274414 -9.544922,-27.532227 -9.544922,-40.275391c0,-11.217773 -2.71582,-14.664063 -13.469727,-14.664063l-43.887695,0c-10.765625,0 -13.46875,3.446289 -13.46875,14.664063c0,12.735352 -2.951172,29.000977 -9.548828,40.275391c-7.131836,12.188477 -19.90918,16.326172 -32.704102,19.40918c14.220703,-10.432617 15.97168,-25.716797 15.97168,-42.712891c0,-16.907227 -2.895508,-34.552734 14.447266,-45.613281c12.217773,-7.088867 22.736328,-7.563477 30.679688,-6.316406c4.069336,0.640625 13.938477,4.49707 16.573242,4.552734c2.618164,-0.055664 12.478516,-3.912109 16.557617,-4.552734l0,0l-0.000977,0z" fill="#000000"/>
     <g stroke="null" id="svg_19" transform="matrix(0,-4.270505905151367,4.270505905151367,0,-34.45213622407755,85.13344924154808) ">
      <path stroke="null" d="m-1977.629761,2900.127686l-1.949097,-2.787354c11.874146,-16.980713 31.196045,-16.978516 43.067383,0l-1.949097,2.787354c-10.797607,-15.442871 -28.368896,-15.440918 -39.169189,0z" id="svg_22"/>
      <path stroke="null" d="m-1927.836792,2884.933105c-16.656006,-23.818848 -43.760742,-23.818848 -60.417969,0l-1.949219,-2.787354c17.731079,-25.356689 46.585205,-25.356689 64.316406,0l-1.949219,2.787354z" id="svg_21"/>
      <path stroke="null" d="m-1916.286621,2868.419678c-11.155884,-15.953613 -25.985474,-24.739502 -41.757813,-24.739502c-15.772339,0 -30.603149,8.785889 -41.75769,24.739502l-1.949219,-2.787354c11.675537,-16.696777 27.198364,-25.894775 43.706909,-25.894775c0,0 0,0 0,0c16.508545,0 32.031372,9.196045 43.706909,25.894775l-1.949097,2.787354z" id="svg_20"/>
     </g>
     <g stroke="null" id="svg_15" transform="matrix(0,4.270505905151367,-4.270505905151367,0,942.8660684591741,-911.6622920335794) ">
      <path stroke="null" d="m2171.873291,-2756.884521l-1.949219,-2.787354c11.874023,-16.980713 31.195801,-16.97876 43.067139,0l-1.948975,2.787354c-10.797363,-15.443115 -28.368896,-15.441162 -39.168945,0z" id="svg_18"/>
      <path stroke="null" d="m2221.66626,-2772.079346c-16.656006,-23.818848 -43.76123,-23.818848 -60.418457,0l-1.948975,-2.787354c17.731201,-25.356445 46.585205,-25.356445 64.316162,0l-1.94873,2.787354z" id="svg_17"/>
      <path stroke="null" d="m2233.216064,-2788.592529c-11.155518,-15.953613 -25.985107,-24.739502 -41.757813,-24.739502c-15.772217,0 -30.603027,8.785889 -41.757813,24.739502l-1.948975,-2.787354c11.675537,-16.696777 27.198486,-25.894775 43.706787,-25.894775c0,0 0,0 0,0c16.508789,0 32.031738,9.196045 43.707275,25.894775l-1.949463,2.787354z" id="svg_16"/>
     </g>
    </g>
   </g>
  </g>
 </g>
</svg>